<svg width="214" height="56" viewBox="0 0 214 56" fill="none" xmlns="http://www.w3.org/2000/svg">
<path d="M175.73 19.748H169.289V15.7606H175.065V9.54284H169.289V6.23123H175.73V0.0135171H161.777V25.9657H175.73V19.748ZM175.73 49.7823H169.289V45.7948H175.065V39.5771H169.289V36.2655H175.73V30.0478H161.777V56H175.73V49.7823ZM139.589 14.1926L139.762 9.40767C139.849 10.1646 139.907 10.6783 139.921 10.9216C140.124 12.5571 140.283 13.706 140.414 14.3818L142.425 25.9657H148.664L151.124 14.3954C151.284 13.6249 151.428 12.8274 151.53 12.0029C151.645 11.1784 151.747 10.3133 151.834 9.40767L152.08 14.1385L152.384 25.9792H159.983L157.29 0.0270342H148.215L146.348 9.42119C146.073 10.7188 145.87 12.1921 145.711 13.8412C145.624 12.8545 145.537 11.9488 145.436 11.0973C145.335 10.2592 145.219 9.47526 145.089 8.75887L143.525 0.0135171H134.19L130.947 25.9657H138.937L139.589 14.1926ZM93.4739 46.9167L93.416 45.2001C93.5463 45.5651 93.6621 45.8624 93.7489 46.1192C93.8358 46.3761 93.9081 46.5788 93.9371 46.741L97.6425 55.9865H105.762L100.175 45.1866C103.041 43.9836 104.474 41.8209 104.474 38.685C104.474 35.7519 103.403 33.4811 101.275 31.8996C99.5965 30.656 97.0635 30.0343 93.6766 30.0343H85.9908V55.9865H93.4594V46.9167H93.4739ZM93.5173 35.5086H93.7924C95.9635 35.5086 97.049 36.4818 97.049 38.4147C97.049 39.3609 96.7595 40.1583 96.1806 40.7666C95.6016 41.3884 94.8779 41.6857 94.0239 41.6857H93.5173V35.5086ZM81.5617 22.9785C83.8486 20.6401 85.0066 17.315 85.0066 13.0167C85.0066 8.65074 83.646 5.24451 80.9393 2.81149C78.8695 0.946174 75.9892 0.0270342 72.2838 0.0270342H65.7994V25.9792H72.8193C76.6839 25.9657 79.5932 24.9655 81.5617 22.9785ZM73.297 6.5286H73.5286C74.6865 6.5286 75.6129 7.13686 76.3076 8.33985C76.9879 9.54284 77.3353 11.1784 77.3353 13.2464C77.3353 17.4502 75.9892 19.6128 73.297 19.7345V6.5286ZM117.096 16.8825L117.038 15.1658C117.168 15.5308 117.284 15.8281 117.371 16.085C117.458 16.3418 117.53 16.5445 117.559 16.7067L121.264 25.9522H129.384L123.797 15.1523C126.663 13.9493 128.096 11.7866 128.096 8.65074C128.096 5.7176 127.025 3.44678 124.897 1.86532C123.218 0.621772 120.685 0 117.298 0H109.613V25.9522H117.081V16.8825H117.096ZM117.139 5.47429H117.414C119.585 5.47429 120.671 6.4475 120.671 8.3804C120.671 9.32657 120.381 10.1241 119.802 10.7323C119.223 11.3541 118.5 11.6515 117.646 11.6515H117.139V5.47429ZM107.181 56H115.069L115.576 52.6478H120.787L121.293 56H129.095L123.131 30.0478H113.897L107.181 56ZM118.427 36.279L119.773 47.1195H116.676L118.427 36.279ZM97.353 25.9657C100.436 25.9657 102.94 24.7762 104.865 22.3973C106.79 20.0048 107.76 16.896 107.76 13.0842C107.76 9.09679 106.819 5.92035 104.923 3.55491C103.027 1.18948 100.479 0.0135171 97.2661 0.0135171C94.6463 0.0135171 92.3884 0.878591 90.4778 2.62225C87.9159 4.97417 86.6277 8.36688 86.6277 12.8004C86.6277 17.4366 87.858 20.9104 90.3186 23.2218C92.2726 25.0466 94.6174 25.9657 97.353 25.9657ZM95.1674 8.04248C95.6885 6.83949 96.3977 6.23123 97.2951 6.23123C99.0754 6.23123 99.9583 8.52908 99.9583 13.1383C99.9583 15.2199 99.7123 16.8284 99.2057 18.0043C98.728 19.1668 98.0478 19.748 97.1504 19.748C96.2819 19.748 95.6161 19.1533 95.124 17.9773C94.6319 16.8013 94.4003 15.1388 94.4003 12.9896C94.4003 10.8134 94.6608 9.16437 95.1674 8.04248ZM38.2262 37.5496C40.3394 34.7246 41.8447 31.7779 42.5974 28.7907C42.6553 28.5339 42.7276 28.2906 42.771 28.0338C43.4079 25.1953 43.3211 22.4243 42.4526 19.8426L42.4381 19.8156C41.4828 16.7203 39.5578 13.706 36.4748 10.8945C52.8885 18.4369 62.123 39.2122 39.2973 56H57.0281V0.0135171H0V56H7.35286C19.9164 52.2829 32.3352 45.4029 38.2262 37.5496ZM11.6661 9.82669C13.982 9.04272 16.4137 8.52908 18.8743 8.27227C22.2902 7.96138 25.8797 8.2182 29.4693 9.11031C30.0628 9.25899 30.6273 9.42119 31.1917 9.59691C33.9708 11.6109 36.0261 13.7601 37.4446 15.9768C27.0956 13.4762 17.2242 16.3283 13.2004 23.0731L4.06723 14.0169C6.2673 12.2327 8.84369 10.8134 11.6661 9.82669ZM157.204 30.0478H148.128L146.261 39.4419C145.986 40.7396 145.783 42.2129 145.624 43.8619C145.537 42.8752 145.451 41.9696 145.349 41.118C145.248 40.28 145.132 39.496 145.002 38.7796L143.439 30.0343H134.103L130.861 55.9865H138.85L139.516 44.2134L139.69 39.4284C139.777 40.1854 139.835 40.699 139.849 40.9423C140.052 42.5778 140.211 43.7268 140.341 44.4026L142.353 55.9865H148.591L151.052 44.4161C151.211 43.6457 151.356 42.8482 151.457 42.0237C151.573 41.1991 151.674 40.3341 151.761 39.4284L152.007 44.1593L152.311 56H159.91L157.204 30.0478ZM200.409 1.06783H202.435V6.21772H203.767V1.06783H205.793V0H200.423V1.06783H200.409ZM213.667 0.0135171H212.654H212.379L210.468 4.41999L208.543 0.0135171H208.268H207.255H206.937V6.21772H208.268V2.21675L210.106 6.21772H210.83L212.668 2.21675V6.21772H214V0.0135171H213.667ZM177.627 36.2655H181.969V56H189.379V36.2655H193.751V30.0478H177.641V36.2655H177.627ZM196.11 8.66425C196.11 5.73111 195.039 3.46029 192.911 1.87883C191.232 0.635289 188.699 0.0135171 185.312 0.0135171H177.627V25.9657H185.095V16.8825L185.037 15.1658C185.168 15.5308 185.283 15.8281 185.37 16.085C185.457 16.3418 185.529 16.5445 185.558 16.7067L189.264 25.9522H197.384L191.797 15.1523C194.677 13.9763 196.11 11.8001 196.11 8.66425ZM187.802 10.7323C187.223 11.3541 186.499 11.6515 185.645 11.6515H185.139V5.46078H185.414C187.585 5.46078 188.67 6.43398 188.67 8.36688C188.67 9.32657 188.381 10.1241 187.802 10.7323ZM81.142 31.832C79.2893 30.656 76.7708 30.0343 73.4128 30.0343H65.7704V55.9865H73.4128V47.4844H74.3391C78.1169 47.4844 80.8814 46.4707 82.5604 44.4432C83.8197 43.0374 84.4131 41.091 84.4131 38.6039C84.4276 35.5086 83.3276 33.2377 81.142 31.832ZM75.9458 40.8747C75.3523 41.3478 74.5128 41.6587 73.4272 41.6587V35.5761C74.5128 35.5761 75.2799 35.887 75.8589 36.5088C76.4523 37.0495 76.6984 37.8335 76.6984 38.7661C76.6984 39.6988 76.4524 40.4152 75.9458 40.8747Z" fill="black"/>
</svg>
