<svg xmlns="http://www.w3.org/2000/svg" xmlns:xlink="http://www.w3.org/1999/xlink" width="380" height="77" viewBox="0 0 380 77">
  <defs>
    <clipPath id="clip-path">
      <path id="Caminho_5806" data-name="Caminho 5806" d="M89.8,32.5h0ZM104.537,7.46a.26.26,0,0,0-.227-.142h0A.265.265,0,0,1,104.537,7.46Z" transform="translate(-89.793 -7.318)" clip-rule="evenodd"/>
    </clipPath>
    <clipPath id="clip-logo">
      <rect width="380" height="77"/>
    </clipPath>
  </defs>
  <g id="logo" clip-path="url(#clip-logo)">
    <g id="logo-2" data-name="logo" transform="translate(0)">
      <path id="Caminho_5798" data-name="Caminho 5798" d="M25.06,11.083c4.783.427,3.914-.55,3.914,11.188,0,13.2.65,10.208-3.914,11.184v6.117l18.151-.123L43.1,33.274l-2.826-.369c-.438-2.687,0-9.047,0-12.165,0-2.445-.438-7.824,3.91-8.07,4.456-.181,3.587,4.829,3.587,8.439,0,2.687.327,9.781-.219,11.857l-2.28.246v6.359L61.8,39.51V33.274l-2.611-.308c-.108-4.156,0-8.62,0-12.776,0-2.018-.215-3.914.761-5.5,1.415-2.384,6.413-3.852,6.74,2.018V29.36c0,3.241.542,3.545-2.5,3.914v6.3H81.358v-6.3l-3.26-.246c-.434-6.967,1.3-20.538-1.849-25.552C73.315,2.951,65.6,2.709,61.469,5.642,59.185,7.23,59.62,7.415,58.532,8.76l-.323.3C56.033,5.273,53.534,3.5,48.643,3.747A10.584,10.584,0,0,0,40.819,7.23c-.654.673-.869,1.284-1.522,1.9l-.108-4.464H25.06v6.421Z" transform="translate(71.287 10.548)" fill="#fff" fill-rule="evenodd"/>
      <path id="Caminho_5799" data-name="Caminho 5799" d="M83.517,10.377c1.738.427,3.26-.185,3.479,1.9V28.289c.108,7.336,2.826,11.369,10.215,11.369,8.043,0,9.235-4.829,10.323-5.136v4.344h13.695l-.108-6.236c-4.022-.488-3.26-.857-3.26-4.89,0-6.909.327-17.789,0-23.783l-14.348.123v6.3c3.806,1.407,3.045-2.384,3.045,14.487,0,3.3-1.088,5.809-4.348,5.994-4.022.181-3.91-2.937-3.8-6.421,0-4.341.108-17.117-.108-20.481l-14.783.062v6.359Z" transform="translate(237.579 11.254)" fill="#9bcb4a" fill-rule="evenodd"/>
      <path id="Caminho_5800" data-name="Caminho 5800" d="M79.832,4.019c-10,1.649-14.456,9.473-13.695,20.784.327,5.133,1.523,9.108,5.11,12.345,5.867,5.321,29.45,7.459,27.932-17.909C98.418,7.5,90.59,2.3,79.832,4.019ZM77.768,23.457c.215,4.033,1.088,9.962,6.086,8.5,3.587-1.038,3.695-7.336,3.587-11.373-.219-4.279-.873-9.781-6.086-8.435-3.806,1.042-3.695,7.093-3.587,11.311" transform="translate(187.903 10.522)" fill="#fff" fill-rule="evenodd"/>
      <path id="Caminho_5801" data-name="Caminho 5801" d="M51.856,26.152c5.544,0,10.869-.488,14.564-3.237,6.086-4.525,6.847-19.32-8.151-19.2a19.362,19.362,0,0,0-7.393,1.407,16.35,16.35,0,0,0-8.581,8.8,21.279,21.279,0,0,0-1.742,7.155c-.761,10.634,3.914,19.131,15.759,19.254,4.89.062,10.869-1.1,13.91-3.545l-2.934-7.459c-1.3.427-2.5,1.346-4.129,1.9a15.272,15.272,0,0,1-5.325.673c-3.153-.246-6.086-2.445-5.978-5.748Zm-.219-6.724c3.045.062,7.935,0,8.8-3.36,1.738-6.052-8.151-6.421-8.8,3.36" transform="translate(115.133 10.576)" fill="#fff" fill-rule="evenodd"/>
      <path id="Caminho_5802" data-name="Caminho 5802" d="M75.715,38.161c5.436,2.018,12.934,3.18,19.02,1.407,5.325-1.592,9.673-5.871,8.585-12.96-.869-6.3-6.736-7.216-12.607-9.17-7.389-2.449-2.933-7.7,2.826-5.871,1.523.488,1.088,1.772,1.088,4.279l7.609-.55V6.25C97.56,3.743,89.629,2.824,84.085,4.72c-5.217,1.776-9.566,6.236-8.043,13.51,2.176,9.781,15.867,6.113,15.978,11.5,0,4.033-5.871,3.36-7.609,2.749-1.523-.55-1.088-2.507-1.088-4.341l-7.609.55Z" transform="translate(215.385 10.552)" fill="#9bcb4a" fill-rule="evenodd"/>
      <path id="Caminho_5803" data-name="Caminho 5803" d="M87.557,35.967l-3.914-7.274c-1.845.734-5.325,3.852-9.781,2.507C67.668,29.3,68.1,16.59,72.124,13.41c1.088-.857,6.3-2.568,6.413.98.108,1.1,0,2.2,0,3.3l8.039-.488V6.5c-.65-2.564-29.558-9.535-28.8,16.874.219,8.132,3.587,13.633,9.673,15.832,7.174,2.687,15.433.488,20.108-3.241" transform="translate(164.312 10.604)" fill="#fff" fill-rule="evenodd"/>
      <path id="Caminho_5804" data-name="Caminho 5804" d="M63.483,9.815v-5.2H49.031l.215,6.482c3.695.242,3.914-.185,3.914,3.668V29.685c0,4.218-.327,3.176-3.914,3.664v6.117l21.084.062V33.168L64.464,32.8V19.35c0-2.076-.108-4.095,1.088-5.5a4.326,4.326,0,0,1,5-1.038c.327,1.649,0,4.1.108,5.929l8.912-.55V4.987c-.327-1.1-9.562-2.753-13.583,1.469a14.692,14.692,0,0,0-1.3,1.465c-.438.55-.765,1.469-1.2,1.9" transform="translate(139.477 10.592)" fill="#fff" fill-rule="evenodd"/>
      <path id="Caminho_5805" data-name="Caminho 5805" d="M93.976,6.75c1.738.246,3.587-.123,3.914,1.592V35.728c0,6.786.761,6.847-3.806,7.09L93.976,49h18.693V42.637l-3.476-.365V.395L93.976.457V6.75Z" transform="translate(267.331 1.124)" fill="#9bcb4a" fill-rule="evenodd"/>
      <path id="Caminho_5807" data-name="Caminho 5807" d="M25.06,20.971l.215-.031c.131-.023.211-.046.211-.223V16.788l-.4-.031v-.481H28.37v1.069l-.561.054V17c0-.131-.031-.2-.208-.2H26.1v1.734h1.953v.527H26.1V20.9h1.588c.161,0,.181-.062.181-.208v-.427l.557.054v1.107H25.06Z" transform="translate(71.287 46.303)" fill="#fff"/>
      <path id="Caminho_5808" data-name="Caminho 5808" d="M30.862,20.475h.008V16.788l-.411-.023v-.488H31.9v.454l-.231.035c-.146.023-.192.054-.192.231v4.433H30.8L28.182,17.15h-.008v3.768l.411.023v.488H27.144v-.458l.235-.031c.146-.023.192-.054.192-.211V16.788l-.4-.023v-.488H28.3l2.564,4.2Z" transform="translate(77.215 46.303)" fill="#fff"/>
      <path id="Caminho_5809" data-name="Caminho 5809" d="M29.591,20.971l.215-.031c.131-.023.208-.046.208-.223V16.788l-.4-.031v-.481H32.9v1.069l-.561.054V17c0-.131-.031-.2-.208-.2h-1.5v1.734h1.949v.527H30.629V20.9h1.588c.161,0,.177-.062.177-.208v-.427l.561.054v1.107H29.591v-.458Z" transform="translate(84.176 46.303)" fill="#fff"/>
      <path id="Caminho_5810" data-name="Caminho 5810" d="M33.72,18.818a1.017,1.017,0,0,0,1.123-1.111c0-.857-.5-.934-1.457-.934h-.673v2.045Zm.015-2.541c1.084,0,1.749.369,1.749,1.388a1.361,1.361,0,0,1-1.069,1.415.821.821,0,0,1,.534.527l.657,1.311.35.023v.488H34.432v-.458l.308-.023c.15-.015.188-.1.111-.246l-.488-.961a.644.644,0,0,0-.7-.427h-.95v1.6l.4.023v.488H31.675v-.458l.238-.031c.146-.023.188-.054.188-.231V16.788l-.4-.023v-.488h2.038Z" transform="translate(90.105 46.303)" fill="#fff"/>
      <path id="Caminho_5811" data-name="Caminho 5811" d="M34.558,18.882c0,1.369.481,2.184,1.638,2.184a2.083,2.083,0,0,0,1.011-.242V19.316l-.534-.023V18.8h1.576v.454l-.219.027c-.15.023-.208.058-.208.223V21.15a3.05,3.05,0,0,1-1.638.442c-1.511,0-2.268-.854-2.268-2.657,0-1.992,1.107-2.684,2.449-2.684a3.362,3.362,0,0,1,1.473.3v1.115l-.557.054v-.6c0-.146-.019-.2-.165-.254a3.4,3.4,0,0,0-.723-.073c-1.246,0-1.834.777-1.834,2.088" transform="translate(96.48 46.232)" fill="#fff"/>
      <path id="Caminho_5812" data-name="Caminho 5812" d="M36.241,21.429v-.458l.211-.023c.146-.023.219-.054.219-.246V16.788l-.4-.023v-.488h1.438v.454l-.223.027c-.146.023-.2.062-.2.238v3.922l.4.023v.488H36.241Z" transform="translate(103.094 46.303)" fill="#fff"/>
      <path id="Caminho_5813" data-name="Caminho 5813" d="M39.267,19.345H41l-.865-2.518h-.008l-.861,2.518Zm-1.5,2.084v-.458l.211-.031c.115-.023.169-.031.223-.2l1.4-3.933-.4-.046v-.488h1.311l1.665,4.641.4.023v.488H41.035v-.458l.265-.031c.123-.023.223-.069.154-.258l-.3-.842H39.12l-.373,1.077.4.023v.488h-1.38Z" transform="translate(107.446 46.303)" fill="#fff"/>
      <path id="Caminho_5814" data-name="Caminho 5814" d="M43.808,21.05c1.123,0,1.465-1.038,1.465-2.092,0-.907-.292-2.157-1.473-2.157-1.138,0-1.542,1.057-1.542,2.111,0,1.023.269,2.138,1.549,2.138Zm.511.481v.023c1.015.062,1.307.7,2.357.581l-.069.557c-1.173.092-1.884-.719-2.853-.719a2.316,2.316,0,0,0-.488.046l.085-.458c-1.092-.154-1.734-1.023-1.734-2.626,0-1.992,1.153-2.684,2.207-2.684,1.115,0,2.092.7,2.092,2.684,0,1.511-.6,2.368-1.6,2.6" transform="translate(118.387 46.232)" fill="#fff"/>
      <path id="Caminho_5815" data-name="Caminho 5815" d="M44.347,19.841V16.788l-.4-.023v-.488h1.438v.454l-.231.027c-.146.023-.2.062-.2.238V19.81c0,.9.531,1.176,1.257,1.176a1.068,1.068,0,0,0,1.2-1.138v-3.06l-.408-.023v-.488h1.442v.454l-.215.027c-.146.023-.208.062-.208.238v2.983c0,.992-.761,1.542-1.853,1.542-1.2,0-1.83-.481-1.83-1.68" transform="translate(125.015 46.303)" fill="#fff"/>
      <path id="Caminho_5816" data-name="Caminho 5816" d="M46.329,20.971l.215-.031c.131-.023.208-.046.208-.223V16.788l-.4-.031v-.481h3.287v1.069l-.561.054V17c0-.131-.031-.2-.208-.2h-1.5v1.734H49.32v.527H47.367V20.9h1.588c.161,0,.177-.062.177-.208v-.427l.561.054v1.107H46.329Z" transform="translate(131.791 46.303)" fill="#fff"/>
      <path id="Caminho_5817" data-name="Caminho 5817" d="M50.9,20.933h.93c1.123,0,1.742-.727,1.742-2.122,0-1.584-.765-2.038-1.757-2.038H50.9Zm.957-4.656a2.156,2.156,0,0,1,2.353,2.384c0,2.049-1.1,2.768-2.3,2.768H49.864v-.458l.223-.031c.15-.023.2-.054.2-.231V16.788l-.4-.031v-.481h1.972Z" transform="translate(141.847 46.303)" fill="#fff"/>
      <path id="Caminho_5818" data-name="Caminho 5818" d="M54.911,15.809l.265.208a.253.253,0,0,1,.115.2c0,.146-.108.231-.254.319l-1.115.673-.188-.258,1.176-1.146Zm-1.346,4.867H55.3l-.865-2.518h-.012l-.857,2.518Zm-1.5,2.084V22.3l.211-.031c.115-.023.169-.031.223-.2l1.4-3.933-.4-.046v-.488H54.8l1.669,4.641.4.023v.488H55.334V22.3l.261-.031c.123-.023.223-.069.154-.258l-.3-.842h-2.03l-.373,1.077.4.023v.488h-1.38Z" transform="translate(148.111 44.972)" fill="#fff"/>
      <path id="Caminho_5819" data-name="Caminho 5819" d="M58.138,20.035c0-.365-.3-.5-.773-.619-.677-.188-1.476-.5-1.476-1.542,0-1.03.784-1.622,1.922-1.622a3.751,3.751,0,0,1,1.553.311v1.265l-.977.062V17.5c0-.115-.008-.169-.111-.2a1.828,1.828,0,0,0-.434-.042c-.3,0-.569.123-.569.461,0,.365.308.481.819.646.707.223,1.457.473,1.457,1.534,0,1.084-.773,1.7-2.022,1.7a4.275,4.275,0,0,1-1.672-.311V19.966l1-.062v.434c0,.115,0,.177.108.208a1.919,1.919,0,0,0,.469.054c.377,0,.707-.138.707-.565" transform="translate(158.886 46.232)" fill="#fff"/>
      <path id="Caminho_5820" data-name="Caminho 5820" d="M58.378,17.057l-.419-.031v-.75h2.191v.734l-.25.023c-.146.023-.185.054-.185.235v3.368l.419.031v.761H57.944v-.746l.246-.023c.146-.023.188-.054.188-.246V17.057Z" transform="translate(164.832 46.303)" fill="#fff"/>
      <path id="Caminho_5821" data-name="Caminho 5821" d="M62.742,20.483v-.915l-.473-.031v-.754h2.092v.738l-.2.023c-.135.023-.188.069-.188.215v1.319a3.372,3.372,0,0,1-1.9.519c-1.484,0-2.422-.869-2.422-2.657a2.424,2.424,0,0,1,2.611-2.691,3.962,3.962,0,0,1,1.649.334v1.357L62.934,18v-.458c0-.115-.015-.177-.115-.208a2.354,2.354,0,0,0-.511-.05c-.915,0-1.3.654-1.3,1.607,0,1.077.327,1.7,1.1,1.7a1.9,1.9,0,0,0,.627-.108" transform="translate(169.688 46.226)" fill="#fff"/>
      <path id="Caminho_5822" data-name="Caminho 5822" d="M66.742,21.429H65.566l-1.876-3.107h-.023v2.322l.442.035v.75H61.99v-.734l.258-.027c.131-.023.177-.046.177-.223V17.057l-.411-.031v-.75h1.661l1.815,3.068H65.5V17.057l-.442-.031v-.75h2.115v.734l-.258.023c-.131.023-.177.054-.177.235v4.16Z" transform="translate(176.341 46.303)" fill="#fff"/>
      <path id="Caminho_5823" data-name="Caminho 5823" d="M64.879,17.057l-.415-.031v-.75h2.191v.734l-.246.023c-.15.023-.188.054-.188.235v3.368l.419.031v.761H64.448v-.746l.246-.023c.146-.023.185-.054.185-.246V17.057Z" transform="translate(183.334 46.303)" fill="#fff"/>
      <path id="Caminho_5824" data-name="Caminho 5824" d="M66.146,20.695l.235-.027c.154-.023.185-.062.185-.246V17.065l-.411-.031v-.757h3.968v1.338l-.977.062v-.308c0-.15-.046-.219-.2-.219H67.9v1.288h1.845v.938H67.9v1.261l.6.031v.761H66.146v-.734Z" transform="translate(188.164 46.303)" fill="#fff"/>
      <path id="Caminho_5825" data-name="Caminho 5825" d="M68.725,17.057l-.419-.031v-.75H70.5v.734l-.246.023c-.15.023-.185.054-.185.235v3.368l.415.031v.761H68.291v-.746l.246-.023c.15-.023.188-.054.188-.246V17.057Z" transform="translate(194.266 46.303)" fill="#fff"/>
      <path id="Caminho_5826" data-name="Caminho 5826" d="M72.57,17.28c-.777,0-1.211.523-1.211,1.607,0,.95.334,1.68,1.242,1.68a1.43,1.43,0,0,0,.419-.046c.085-.023.131-.092.131-.211v-.5l.977.062v1.415a3.56,3.56,0,0,1-1.6.319A2.321,2.321,0,0,1,70,18.972a2.39,2.39,0,0,1,2.5-2.722,3.915,3.915,0,0,1,1.611.327v1.365L73.128,18v-.458c0-.115-.008-.177-.108-.208a1.761,1.761,0,0,0-.45-.058" transform="translate(199.122 46.226)" fill="#fff"/>
      <path id="Caminho_5827" data-name="Caminho 5827" d="M74.167,19.272H75.29l-.534-1.811h-.038Zm-1.976,2.157v-.734l.2-.027c.158-.023.2-.092.258-.223l1.107-3.372-.411-.038v-.757H75.49l1.526,4.352.381.038v.761H75.2v-.734l.242-.027c.146-.023.158-.108.115-.223l-.108-.334H74l-.177.534.388.023v.761H72.191Z" transform="translate(205.36 46.303)" fill="#fff"/>
      <path id="Caminho_5828" data-name="Caminho 5828" d="M76.382,20.491h.431c.784,0,1.226-.473,1.226-1.688,0-1.357-.573-1.615-1.226-1.615h-.431Zm-1.753.2.235-.027c.131-.023.185-.054.185-.208V17.065l-.411-.031v-.757h2.218a2.219,2.219,0,0,1,2.526,2.4c0,2.018-1.2,2.753-2.5,2.753H74.629v-.734Z" transform="translate(212.295 46.303)" fill="#fff"/>
      <path id="Caminho_5829" data-name="Caminho 5829" d="M79.385,20.5c.777,0,.946-.754.946-1.534,0-.65-.138-1.588-.977-1.588-.75,0-.977.734-.977,1.511,0,.719.123,1.611,1.007,1.611Zm-.062,1.107c-1.457,0-2.311-.9-2.311-2.664a2.376,2.376,0,0,1,2.418-2.691c1.219,0,2.265.73,2.265,2.691,0,1.765-.923,2.664-2.372,2.664" transform="translate(219.077 46.226)" fill="#fff"/>
      <path id="Caminho_5830" data-name="Caminho 5830" d="M82.678,20.717H83.8l-.534-1.811h-.042Zm1.192-3.656-.288.388-1.223-.581c-.3-.131-.373-.288-.373-.473a.528.528,0,0,1,.25-.411l.288-.215ZM80.7,22.874V22.14l.2-.027c.158-.023.2-.092.258-.223l1.107-3.372-.411-.038v-.757H84l1.523,4.352.381.038v.761h-2.2V22.14l.242-.027c.15-.023.158-.108.115-.223l-.108-.334H82.517l-.181.534.388.023v.761H80.7Z" transform="translate(229.571 44.858)" fill="#fff"/>
      <path id="Caminho_5831" data-name="Caminho 5831" d="M87.1,20.118h.023l.9-3.06-.4-.031v-.75h1.961v.734l-.181.015c-.131.008-.192.069-.246.25l-1.311,4.152H86.284l-1.43-4.348-.392-.046v-.757H86.68v.742l-.242.023c-.146.023-.208.092-.154.273l.815,2.8Z" transform="translate(240.267 46.303)" fill="#fff"/>
      <path id="Caminho_5832" data-name="Caminho 5832" d="M87.3,17.057l-.419-.031v-.75H89.07v.734l-.25.023c-.146.023-.185.054-.185.235v3.368l.419.031v.761H86.863v-.746l.246-.023c.146-.023.188-.054.188-.246V17.057Z" transform="translate(247.097 46.303)" fill="#fff"/>
      <path id="Caminho_5833" data-name="Caminho 5833" d="M90.311,20.491h.438c.78,0,1.223-.473,1.223-1.688,0-1.357-.577-1.615-1.223-1.615h-.438Zm-1.749.2.235-.027c.131-.023.185-.054.185-.208V17.065l-.411-.031v-.757h2.215a2.221,2.221,0,0,1,2.53,2.4c0,2.018-1.2,2.753-2.5,2.753H88.562v-.734Z" transform="translate(251.93 46.303)" fill="#fff"/>
      <path id="Caminho_5834" data-name="Caminho 5834" d="M92.791,19.272h1.123l-.534-1.811h-.038Zm-1.976,2.157v-.734l.2-.027c.154-.023.2-.092.254-.223l1.107-3.372-.411-.038v-.757h2.149l1.526,4.352.381.038v.761h-2.2v-.734l.242-.027c.146-.023.154-.108.115-.223l-.111-.334H92.63l-.181.534.388.023v.761H90.815Z" transform="translate(258.339 46.303)" fill="#fff"/>
      <path id="Caminho_5835" data-name="Caminho 5835" d="M102.769,14.29a8.76,8.76,0,0,1,5.917,2.284l-.323.131-.177.185.042.219.211.035.131.319.365-.15.062.431h-.108l-.3-.042-.338.054-.323.461-.465.073-.065.4.2.05-.058.254-.461-.1-.423.1-.088.235.069.492.254.119.415-.008.277-.019.092-.223.438-.573.288.058.281-.254.054.2.7.473-.085.119-.315-.019.123.173.192.046.231-.1-.008-.277.1-.046-.081-.085-.469-.261-.123-.35h.388l.123.123.338.288.015.346.346.377.127-.507.242-.135.042.415.235.258h.1c.1.246.188.5.261.75H110.8l-.438-.323-.458.042V20.6h-.146l-.154-.115-.8-.2v-.519l-1,.081-.315.165h-.4L106.89,20l-.484.265v.507l-1,.715.081.308h.2l-.054.292-.138.054-.012.757.861.98h.373l.023-.062h.673l.192-.181h.381l.211.215.565.058-.073.754.631,1.111-.338.634.027.3.261.258v.719l.342.461V28.6a8.8,8.8,0,0,1-15.6-4.617c0-.069-.012-.138-.015-.208v0a6.779,6.779,0,0,1-.027-.688v-.158l0-.127.008-.131v-.073c0-.058,0-.111.008-.165L94,22.387a8.678,8.678,0,0,1,.688-2.787v.481l.373.181v.711l.358.607.292.042.035-.208-.342-.527-.069-.515h.2l.085.531.5.719-.127.238.315.481.784.2v-.131l.311.05-.027.223.246.046.377.1.542.611.684.05.069.561-.473.327-.019.5-.069.3.677.85.054.292s.246.065.277.065.554.4.554.4v1.534l.185.054-.127.711.315.415-.058.7.415.727.527.465.534.008.054-.173-.4-.331.027-.161.069-.2.019-.2-.269-.012-.135-.165.219-.215.035-.158-.246-.073.012-.146.35-.054.534-.258.177-.331.561-.715-.131-.561.177-.3.515.012.346-.273.111-1.077.384-.492.065-.311-.346-.111-.238-.384-.788,0-.627-.242-.031-.446-.208-.365-.569-.012-.323-.511-.3-.138-.015.154-.527.031-.192-.273-.557-.111-.454.531-.715-.123-.054-.807-.523-.092.211-.392-.062-.231-.684.458-.434-.046-.154-.342.1-.346.235-.438.55-.277H98.92v.319l.381.177-.031-.55.277-.281L100.1,20l.042-.258.55-.569.588-.327-.054-.042.4-.377.146.038.065.085.154-.165.038-.019-.165-.023-.173-.054v-.165l.092-.069.2,0,.085.042.081.154.1-.012v-.015l.027.012.273-.042.042-.138.158.042v.142l-.146.1.023.158.5.158v0l.115-.012.008-.211-.4-.181-.023-.108.327-.108.015-.315-.342-.208-.019-.531-.469.231h-.173l.042-.4-.642-.154-.258.2v.615l-.477.15-.192.392-.208.038v-.511l-.446-.062-.223-.146-.092-.327.8-.469.392-.119.038.261.219-.008.015-.135.231-.035,0-.046-.1-.038-.023-.138.284-.027.169-.177.008-.012h0l.046-.05.6-.077.254.219-.681.369.869.2.111-.288h.381l.138-.258-.273-.065V15.8l-.838-.373-.584.062-.331.173.023.419-.342-.05-.054-.231.331-.3-.6-.031-.173.05-.073.2.223.042-.046.219-.381.027-.058.15-.55.012a1.724,1.724,0,0,0-.038-.311l.431-.012.327-.319-.177-.092-.238.238-.4-.023-.242-.331h-.508l-.527.4h.484l.042.142-.119.119.531.015.088.192-.611-.023-.027-.146-.377-.081-.2-.115h-.327a8.757,8.757,0,0,1,4.963-1.53" transform="translate(267.331 40.651)" fill="#fff" fill-rule="evenodd"/>
      <path id="Caminho_5836" data-name="Caminho 5836" d="M80.168,33.357a178.073,178.073,0,0,0-1.319-18.4c-.857-7.047-.95-10.638-7.816-11.942A164.116,164.116,0,0,0,34.6.119a166.063,166.063,0,0,0-26.759,2.9c-3.064.6-5,1.572-6.182,3.695A13.5,13.5,0,0,0,.54,10.288a2.483,2.483,0,0,0,2.434,2.98H53.016c9.412,0,9.223,13.153,0,13.164l-28.962.023a2.482,2.482,0,1,0,0,4.963q13.414,0,26.836,0c2.5,0,4.514-.265,6.282,1.05,5,3.729,3.268,12.153-4.16,12.134l-28.974-.019a2.475,2.475,0,0,0-2.484,2.5v.038a2.478,2.478,0,0,0,2.48,2.468q13.431.006,26.855,0c2.561,0,4.452-.2,6.267,1.08a6.618,6.618,0,0,1-4.145,12.068l-50.081.012A2.48,2.48,0,0,0,.483,65.6c.673,4.464,1.849,6.993,7.378,7.943a182.89,182.89,0,0,0,36.517,2.945c4.356-.142,26.394-1.738,30.327-4.079a8.071,8.071,0,0,0,2.488-2.572c2.8-5.113,3.118-29.047,2.976-36.478" transform="translate(1.289 0)" fill="#9bcb4a"/>
      <path id="Caminho_5837" data-name="Caminho 5837" d="M6.8,4.111H8.385a5.442,5.442,0,0,0,.669.008,1.086,1.086,0,0,0,.169-.008h.746a1.6,1.6,0,0,0,.173.015,3.059,3.059,0,0,0,.646-.015h.734a5.779,5.779,0,0,0,.631.008.884.884,0,0,0,.15-.008h.754a2.012,2.012,0,0,0,.684,0l4.575,0q2.393,0,4.779,0h3.564q3.42,0,6.836,0l4.352,0H43.4c.565,0,1.134,0,1.7,0h4.679c1.15,0,1.726,0,1.73,0,1.057,0,1.2-.008,1.661,0a17.035,17.035,0,0,1,2.026.1,6.124,6.124,0,0,1,1.073.242c.254.085.454.181.492.2s.2.1.411.219a4.546,4.546,0,0,1,.638.431,3.489,3.489,0,0,1,.527.534,3.116,3.116,0,0,1,.269.4,3.265,3.265,0,0,1,.261.6,3.43,3.43,0,0,1,.15.757,3.573,3.573,0,0,1,.008.484c0,.169-.019.3-.031.408s-.023.238-.054.4a3.892,3.892,0,0,1-.158.6,4.125,4.125,0,0,1-.3.684,4.413,4.413,0,0,1-.4.592,4.011,4.011,0,0,1-.354.384,3.914,3.914,0,0,1-.554.442,4.078,4.078,0,0,1-.884.434,6.2,6.2,0,0,1-1.807.308c-.719.05-1.269.062-1.626.065-1.438.027-2.534.023-2.741.023-1,0-1.784-.012-2.484-.019s-1.288-.019-1.78-.027c-.619-.008-1.146-.019-1.8-.031-1.215-.023-1.58-.031-3.841-.077-1.034-.019-1.646-.035-2.4-.046L36.3,12.216c-.5-.008-1.157-.019-2.022-.031-.331-.008-.754-.015-1.319-.019-.4-.008-.938-.012-1.642-.019-.419,0-.984-.008-1.734-.012H28.235c-.273,0-.6,0-1.269.008-2.272.015-.746.015-1.215.015-.142,0-.358,0-.646.027s-.5.062-.565.073c-.246.046-.427.1-.481.115-.185.058-.319.108-.408.142s-.238.1-.427.188c-.165.085-.285.158-.358.2-.131.081-.227.146-.258.169a3.994,3.994,0,0,0-.377.288c-.031.023-.158.135-.319.292s-.269.292-.334.369c-.085.1-.15.2-.2.261-.1.138-.165.246-.188.277-.031.05-.119.2-.223.4-.077.154-.135.285-.165.361a4.662,4.662,0,0,0-.181.542,4.509,4.509,0,0,0-.131.6c0,.031-.023.169-.038.354-.012.123-.019.292-.019.492,0,.273.023.477.027.523a4.453,4.453,0,0,0,.123.7,3.2,3.2,0,0,0,.092.311,3.624,3.624,0,0,0,.177.438c.058.131.1.215.188.369.1.181.188.323.261.446.085.142.127.211.169.273a4.059,4.059,0,0,0,.338.419c.1.111.188.188.261.254a4.851,4.851,0,0,0,.419.35c.231.169.423.281.484.319a5.07,5.07,0,0,0,.488.246c.077.031.219.092.4.154a5.09,5.09,0,0,0,.507.142,5.681,5.681,0,0,0,1,.119c.346.019.554.019,1.011.019.723,0,.519.008,1.465.012.6,0,1.042,0,1.411,0,.746,0,1.307-.008,1.749-.012.892-.008,1.561-.015,2.107-.023l1.9-.027c.9-.015,1.607-.031,2.134-.038.115,0,.584-.012,1.157-.023.269,0,.884-.015,1.822-.035l1.565-.035c.792-.015,1.288-.027,1.957-.038.431-.008.815-.015,1.338-.023.484-.012,1-.019,1.669-.031l1.749-.019c.511-.008.854-.008.977-.008.265,0,.6,0,1.05,0,.281,0,.615,0,1.057,0,.308,0,.642.008,1.08.015.369.008.765.015,1.288.038.338.015.584.027.919.058a6.794,6.794,0,0,1,.93.111,4.024,4.024,0,0,1,1,.365,4.146,4.146,0,0,1,.788.546c.108.1.223.219.458.465.2.2.265.285.319.35a3.805,3.805,0,0,1,.3.427,2.916,2.916,0,0,1,.208.4,3.045,3.045,0,0,1,.169.488,3.606,3.606,0,0,1,.1.577,4.163,4.163,0,0,1,.008.588c0,.158-.008.235-.019.334a2.937,2.937,0,0,1-.119.6,3.435,3.435,0,0,1-.281.657,4.048,4.048,0,0,1-.427.6,6.067,6.067,0,0,1-.65.684,4.418,4.418,0,0,1-.5.388,4.081,4.081,0,0,1-.827.434,4.3,4.3,0,0,1-1.046.223c-.146.019-.358.042-.973.077-.434.023-1,.046-1.853.062l-.923.012c-.277,0-.977,0-2.188,0-.8-.008-1.388-.015-1.949-.019-.884-.012-1.546-.023-2.238-.038-.784-.012-1.4-.023-2.057-.035-.1,0-.765-.019-1.515-.035-.507-.012-1.011-.019-1.519-.031l-1.18-.023-1.415-.027c-.384-.008-.907-.019-1.6-.031-.331,0-.75-.012-1.307-.019-.361-.008-.854-.015-1.492-.023l-1.826-.019c-.265,0-.657-.008-1.18-.008-.315,0-.754,0-1.33,0H27.7c-.358,0-.607.008-1.107.012-.661.008-.792.008-.95.015a6.737,6.737,0,0,0-.85.054,5,5,0,0,0-.919.211,4.458,4.458,0,0,0-.734.315,4.891,4.891,0,0,0-.469.281,5.209,5.209,0,0,0-.442.338,4,4,0,0,0-.488.469,4.812,4.812,0,0,0-.3.388c-.088.135-.15.235-.265.434s-.169.3-.235.431a4.256,4.256,0,0,0-.281.654,4.591,4.591,0,0,0-.15.6,6.24,6.24,0,0,0-.077.734,5.633,5.633,0,0,0,.015.581,4.5,4.5,0,0,0,.081.642,5.56,5.56,0,0,0,.161.619,5.332,5.332,0,0,0,.65,1.3c.038.05.15.211.319.408.192.219.354.373.411.427a5.307,5.307,0,0,0,.454.373,5.006,5.006,0,0,0,.7.423,4.76,4.76,0,0,0,.557.238,5.1,5.1,0,0,0,.8.215,6.3,6.3,0,0,0,.85.088c.35.015.615.012.734.012.615-.008.331.012,1.9.015.661,0,1.161,0,1.592,0,.588,0,1.027,0,1.373-.008.992-.008,1.745-.019,2.33-.023.857-.012,1.526-.023,2.053-.031s.9-.015,1.234-.023c1.038-.015,1.869-.035,2.434-.046.1,0,.638-.012.838-.015.681-.012,1.361-.027,2.042-.042l1.73-.031c.565-.012,1.119-.023,1.819-.035.6-.008,1.2-.019,1.984-.031.807-.008,1.607-.019,2.657-.019h1.369c.185,0,1.215.012,2.364.054.054,0,.384.015.819.05a8.622,8.622,0,0,1,.888.1,4.742,4.742,0,0,1,.657.169,3.809,3.809,0,0,1,.711.323,3.683,3.683,0,0,1,.6.419,3.727,3.727,0,0,1,.411.408,4.257,4.257,0,0,1,.408.55,4.8,4.8,0,0,1,.258.492,3.687,3.687,0,0,1,.181.477,4.832,4.832,0,0,1,.138.581c.031.2.042.354.054.488a4.772,4.772,0,0,1,0,.707,3.5,3.5,0,0,1-.073.465,3.206,3.206,0,0,1-.123.423,3.408,3.408,0,0,1-.392.754,3.49,3.49,0,0,1-.461.519,3.965,3.965,0,0,1-.434.346,4.436,4.436,0,0,1-.569.331,4.38,4.38,0,0,1-.684.3,4.972,4.972,0,0,1-.88.215c-.315.054-.554.073-.83.1-.334.023-.611.035-1.019.038-.561.008-.942,0-1.3,0H50.457c-.581,0-1.165,0-1.745,0H42.026c-1.173,0-2.349,0-3.526,0H32.741q-2.982.006-5.959,0-2.434.006-4.867,0H19.277l-3.195,0H12.867l-3.118,0H7.077s-.4.012-1.1,0a6.6,6.6,0,0,1-1.153-.081,5.014,5.014,0,0,1-.815-.215,4.934,4.934,0,0,1-.953-.458,5.094,5.094,0,0,1-.819-.627,5.136,5.136,0,0,1-1.215-1.765A5.2,5.2,0,0,1,.761,44.6a6.086,6.086,0,0,1-.119-.88C.568,42.816.53,42.362.526,42.312.461,41.328.468,41.6.38,40.367.3,39.11.241,38.133.222,37.756.145,36.349.107,35.276.1,34.95.076,34.45.03,33,.007,30.874c-.015-1.584,0-1.88,0-4.937,0-3.314-.019-2.791,0-4.041.027-2.841.115-4.971.165-6,.015-.277.058-1.165.127-2.326.031-.469.085-1.319.169-2.411l.031.546a3.127,3.127,0,0,0,1.119.008,4.205,4.205,0,0,0,.027-1.188c-.754-.088-1.034-.073-1.134.058l.027-.334,0-.058a1.6,1.6,0,0,0,.484.038c.25,0,.419.05.557-.1.177-.181.1-.907.027-1.13A3.5,3.5,0,0,0,.8,8.96a1.282,1.282,0,0,0-.154.019l.012-.1.023-.2a2.076,2.076,0,0,0,.83,0c.246-.1.173-.611.165-.877-.019-.431-.2-.365-.584-.365l-.135,0c.035-.088.069-.169.1-.246a2.362,2.362,0,0,0,.569-.05,3.12,3.12,0,0,0,.035-1c.088-.115.2-.258.346-.411l.1-.1a1.012,1.012,0,0,0,.415.023c.777,0,.7.062.7-.877l.05-.031c.111-.062.219-.115.311-.158a.572.572,0,0,0-.015.127,1.817,1.817,0,0,0,.081.88A1.471,1.471,0,0,0,4.69,5.561,1.586,1.586,0,0,0,4.774,4.7c-.027-.423-.223-.323-.654-.323H4.086c.088-.031.2-.065.319-.1.181-.046.327-.073.419-.092a4.831,4.831,0,0,1,.554-.065l.015,0A2.005,2.005,0,0,0,6.139,4.1c.311,0,.573.012.661.015Zm5.64,32.03c0-.015.023-.027.027-.035l.019-1.123a2.786,2.786,0,0,0-1.115-.023c-.131,1.23-.138,1.369,1.069,1.18ZM3.952,11.758l.773-.031.046-.769c-.008-.492-.058-.465-.646-.465-.542,0-.561-.031-.557.519,0,.477-.115.746.384.746Zm8.5,19.8c0-.012.019-.023.023-.031l.069-.323c.015-.723.054-.85-.388-.854l-.777.031-.042.358c-.035.638-.035.877.358.877A1.948,1.948,0,0,0,12.448,31.555ZM2.014,6.314l.035.807a3,3,0,0,0,1.126.023,4.041,4.041,0,0,0,.015-1.2l-.784-.035c-.365,0-.392.046-.392.4Zm8.893,37.455c.012-.069.081-.012.081-.361,0-.83.062-.842-.442-.842-.711,0-.761-.073-.761.384,0,.957-.046.869.531.88l.592-.062Zm6.7-17.955a3.369,3.369,0,0,0-.027,1.165,1.718,1.718,0,0,0,.6.058c.246,0,.358.042.492-.108.058-.058.354-1.1-.208-1.169l-.854.054ZM6.674,23.227c0,.677-.054.75.431.75.673,0,.757.035.78-.4,0-.111,0-.3,0-.411,0-.5-.081-.458-.661-.458-.511,0-.546-.008-.546.519Zm0-16.97c0,1.015-.1.919.834.919.454,0,.369-.215.369-.8,0-.531-.065-.461-.83-.461C6.77,5.911,6.674,5.964,6.674,6.257Zm10.45,22.672c-.108-.123.054-.058-.211-.108l-.692,0c-.319.069-.231.381-.231.711,0,.373-.042.534.342.554L17,30.071c.365-.119.211-1.046.127-1.142ZM8.938,40.778c.573,0,.5-.1.5-.638,0-.465.073-.631-.438-.631-.8,0-.773-.031-.773.631C8.223,40.782,8.158,40.778,8.938,40.778ZM9.054,28.56c.334,0,.377-.085.377-.4,0-.715.085-.869-.377-.869-.9,0-.83-.023-.83.638S8.188,28.56,9.054,28.56ZM.461,15.888l.038.4a3.61,3.61,0,0,0,1.115.019,2.373,2.373,0,0,0,.05-.823c0-.484-.2-.415-.807-.415-.546,0-.4.281-.4.815ZM5.12,6.314c0,.942-.085.865.78.861.5,0,.423-.188.423-.861,0-.554-.315-.4-.823-.4C5.151,5.911,5.12,5.976,5.12,6.314Zm5.425,39.043c.523,0,.442-.146.442-.631s.085-.634-.442-.634c-.565,0-.761-.065-.761.408C9.784,45.407,9.63,45.357,10.545,45.357ZM17.17,33.512a1.432,1.432,0,0,0-.888-.111c-.373.035-.292.292-.292.665s-.062.584.342.607a1.393,1.393,0,0,0,.861-.115ZM8.227,6.314c0,.93-.073.865.827.861.458,0,.377-.177.377-.746,0-.481.015-.523-.488-.527-.473,0-.715-.108-.715.411Zm4.229,20.657c0-.012.015-.027.023-.035a1,1,0,0,0,.058-.557,1.382,1.382,0,0,0-.054-.577c-.811-.092-1.15-.154-1.15.35,0,.742-.215,1.034,1.123.819Zm-3.86-3c.923,0,.838.035.838-.634s.065-.634-.78-.634c-.461,0-.431.146-.431.577,0,.411-.108.692.373.692ZM14.482,5.938a4.023,4.023,0,0,0-.008,1.2,3.19,3.19,0,0,0,1.13,0,4.047,4.047,0,0,0,.008-1.18,3.991,3.991,0,0,0-1.13-.019ZM10.9,31.551c.019-.119.1.161.1-.761,0-.531-.25-.5-1.165-.411l-.042.3c-.069.953.05.934.473.934A1.358,1.358,0,0,0,10.9,31.551Zm4.721,1.976c-.177-.177-.581-.154-.884-.131-.381.035-.292.285-.292.669,0,.408-.073.588.346.607a1.3,1.3,0,0,0,.854-.123ZM14.44,23.112l.031.823a3.509,3.509,0,0,0,1.134,0,4.073,4.073,0,0,0,0-1.184,3.094,3.094,0,0,0-.769-.05c-.388,0-.4.027-.4.408ZM.461,14.054l.031.707a2.634,2.634,0,0,0,.773.058c.423-.012.438-.192.4-.88l-.038-.354a3.656,3.656,0,0,0-.83-.042c-.377.019-.334.154-.334.511ZM17.12,24.342c-.131-.154-.185-.108-.438-.108-.8,0-.692.027-.692.715,0,.377-.05.538.342.557L17,25.484c.365-.111.208-1.05.119-1.142ZM11.333,4.765c0,.946-.05.884.588.884s.615.123.615-.769c0-.546-.058-.5-.73-.5C11.418,4.38,11.333,4.346,11.333,4.765Zm8.9,24.148c-.15-.138-.208-.1-.454-.1-.784,0-.677.046-.681.723,0,.35-.046.531.334.554l.669-.019c.408-.111.185-1.088.131-1.157ZM5.5,11.758c.988,0,.83,0,.823-.857,0-.377-.05-.4-.423-.408-.527,0-.777-.138-.784.4C5.109,11.393,4.99,11.758,5.5,11.758ZM12.464,39.19c0-.012.015-.027.019-.035l.054-.219c.008-.092,0-.246,0-.346,0-.6.05-.611-.615-.611-.561,0-.627-.065-.592.9.012.388.108.369.477.369a1.478,1.478,0,0,0,.657-.062Zm1.6-12.211c.092-1.257.065-1.215-.484-1.215-.477,0-.7-.119-.7.388C12.887,27.022,12.71,27.133,14.067,26.98Zm0,4.583c.069-.857.146-1.211-.361-1.219a3.885,3.885,0,0,0-.773.038c-.111.9-.146,1.23.423,1.234A2.359,2.359,0,0,0,14.063,31.562Zm-1.115-1.576c.031.027.027.065.188.1l.677,0c.365-.035.285-.273.281-.607s.1-.611-.273-.661l-.692.012C12.652,28.948,12.925,29.948,12.948,29.986ZM2.064,11.7a2.975,2.975,0,0,0,1.107.015,2.7,2.7,0,0,0,.054-.765c0-.534-.142-.461-.819-.461-.369,0-.392.042-.4.4a3.012,3.012,0,0,0,.054.807ZM4.009,19.4c.865,0,.792.119.734-1.238-1.315-.154-1.176.054-1.176.6C3.567,19.252,3.475,19.4,4.009,19.4Zm6.894,7.57c0-.012.015-.027.023-.035s.015-.023.019-.035l.046-.285c.015-.907.012-.85-.5-.85-.884,0-.707.035-.7.788,0,.354-.023.465.354.484a1.809,1.809,0,0,0,.765-.069ZM5.5,19.4c.957,0,.823.008.827-.7,0-.619,0-.573-.6-.573-.527,0-.611-.038-.611.511C5.117,19.109,5.005,19.4,5.5,19.4Zm8.558,16.747a3.383,3.383,0,0,0-.015-1.165,2.824,2.824,0,0,0-1.107-.012,2.551,2.551,0,0,0-.054.761c0,.311.027.465.358.465A3.062,3.062,0,0,0,14.059,36.145ZM.511,17.779a1.333,1.333,0,0,0,.746.085c.484,0,.408-.088.411-.888,0-.458-.154-.377-.811-.377-.323,0-.388.046-.4.373A2.221,2.221,0,0,0,.511,17.779Zm10.4,16.828c.012-.085.073-.062.073-.315-.008-.919.077-.892-.442-.892-.784,0-.761-.05-.761.492,0,.927-.008.78.761.777C10.776,34.669,10.761,34.688,10.914,34.607Zm.419-13.041c0,.946-.069.88.646.88.581,0,.565.05.561-.534-.008-.746.15-.73-.85-.73-.319,0-.358.054-.358.384Zm7.34,2.772c-.138-.146-.2-.1-.442-.1-.8,0-.681.031-.684.715,0,.546-.054.577.8.557.365-.008.311-.065.342-.108a1.5,1.5,0,0,0-.015-1.061ZM9.35,26.964c0-.015.019-.027.023-.035a.279.279,0,0,0,.019-.035.4.4,0,0,0,.015-.038l.023-.188c0-1,.05-.907-.6-.907-.527,0-.6-.085-.6.446,0,.742-.119.827.484.827.35,0,.454.042.638-.069ZM2.518,8.706c.8,0,.7.088.7-.9,0-.434-.2-.369-.7-.369-.611,0-.5.042-.507.654,0,.527-.042.615.507.615ZM10.91,39.186c0-.019.058-.115.065-.154a.929.929,0,0,0,.012-.208c.015-.9.012-.842-.5-.842-.677,0-.7-.054-.711.431a1.612,1.612,0,0,0,.081.754A1.483,1.483,0,0,0,10.91,39.186ZM9.784,20.247c0,.8,0,.677.65.677.611,0,.554.046.554-.792,0-.531.023-.477-.788-.477C9.707,19.655,9.78,19.8,9.784,20.247Zm-3.11-.231c0,.827-.1.9.431.907.819,0,.78.085.777-.8,0-.492-.015-.473-.6-.473-.415,0-.6-.092-.6.361Zm3.872,8.543c.377,0,.442-.023.442-.4,0-.638.1-.842-.323-.873-.957-.069-.907.088-.888.877.015.465.065.4.769.4ZM9.361,39.183c.008-.065.069-.008.073-.358.012-.8.062-.842-.381-.842-.877,0-.827-.062-.827.5,0,.692-.062.769.369.773A1.832,1.832,0,0,0,9.361,39.183Zm3.568-16.436a3.757,3.757,0,0,0-.008,1.192,2.939,2.939,0,0,0,1.13-.015,3.565,3.565,0,0,0,0-1.161,3.176,3.176,0,0,0-1.126-.015ZM17.6,30.4a3.378,3.378,0,0,0-.019,1.165c.227.073.907.131,1.08-.05.188-.169.108-.9.038-1.126a3.018,3.018,0,0,0-1.1.012Zm-3.107-.012c-.054.169-.127,1.015.012,1.153s.95.073,1.107.023a3.5,3.5,0,0,0-.023-1.169,3.084,3.084,0,0,0-1.1-.008ZM6.674,10.959c0,.6-.073.788.369.8.877.031.838.038.838-.692,0-.454.135-.661-.9-.584-.334.027-.311.154-.311.473Zm-2.607,2.33c.792,0,.707.012.707-.611,0-.681.123-.657-.823-.657-.511,0-.381.211-.384.719S3.54,13.289,4.067,13.289ZM15.593,28.9a1.764,1.764,0,0,0-.923-.077c-.323.065-.231.373-.231.711,0,.384-.058.538.346.554l.661-.023C15.816,29.94,15.643,29.013,15.593,28.9Zm-2.649-3.5c.208.192,1,.1,1.073.035.15-.142.081-.95.046-1.146a1.728,1.728,0,0,0-.6-.058c-.45,0-.4-.008-.5.1a1.525,1.525,0,0,0-.023,1.069ZM8.227,9.467c0,.681-.062.761.419.769.865.012.784-.019.788-.711,0-.5.1-.619-.9-.569C8.158,8.979,8.227,9.09,8.227,9.467Zm12,14.86a1.521,1.521,0,0,0-.915-.085c-.3.058-.211.354-.215.707s-.062.534.334.557l.669-.019c.4-.1.192-1.077.127-1.161Zm-5.706,2.6c.135.161.3.111.554.111.173,0,.434.046.534-.119a2.445,2.445,0,0,0-.023-1.107,1.72,1.72,0,0,0-.569-.05,3.164,3.164,0,0,0-.334.008c-.165.035-.142.1-.154.077-.054-.1-.227.865-.008,1.08ZM8.227,21.566c0,.911-.15.884.711.88.55,0,.492.054.492-.827,0-.484-.077-.442-.546-.442S8.227,21.074,8.227,21.566ZM6.674,4.765c0,1.023-.1.88.834.88.442,0,.373-.1.369-.765,0-.55.088-.5-.773-.5C6.72,4.38,6.674,4.35,6.674,4.765Zm1.553.173c0,.869.038.711.769.711.415-.008.438-.012.438-.423,0-.9.108-.861-.842-.85-.446.008-.365.123-.365.561Zm-1.461,9.8a1.421,1.421,0,0,0,1.023,0c.146-.138.108-.65.092-.869-.031-.423-.223-.331-.6-.331-.581,0-.619-.108-.607.8a1.385,1.385,0,0,0,.015.223c.046.2-.023.054.081.177ZM6.674,7.806c0,1.046-.042.9.661.9.607,0,.542.073.542-.842,0-.458-.023-.427-.6-.427-.431,0-.6-.1-.6.369Zm3.11-2.637c0,.427,0,.477.411.484.857.012.792.027.792-.777,0-.342.042-.481-.323-.5-.965-.05-.88-.065-.88.792Zm-3.11,7.509c0,.692-.081.611.834.607.45,0,.369-.062.369-.892,0-.408-.058-.373-.542-.373-.723,0-.661-.065-.661.657Zm-6.19.473a1.183,1.183,0,0,0,1.119.035,1.783,1.783,0,0,0,.069-.8c-.015-.442-.185-.369-.584-.369-.319,0-.584-.085-.627.258a3.885,3.885,0,0,0,.023.877ZM4.009,8.7c.919,0,.761,0,.765-.727,0-.623-.065-.542-.65-.542-.623,0-.557,0-.557.6C3.567,8.552,3.459,8.7,4.009,8.7Zm-.369,9.1c.177.081.919.127,1.061-.027a1.8,1.8,0,0,0,.073-.865c-.031-.408-.242-.319-.654-.319-.346,0-.534-.062-.557.323a2.033,2.033,0,0,0,.077.888ZM18.677,28.917c-.146-.146-.2-.1-.446-.1a4.553,4.553,0,0,0-.465.012c-.319.069-.219.4-.219.711,0,.365-.062.531.334.554.331.015.673.05.8-.108A1.537,1.537,0,0,0,18.677,28.917ZM9.784,7.864c0,.942-.108.842.761.842.523,0,.442-.05.442-.842,0-.492-.062-.431-.557-.431S9.78,7.337,9.784,7.864Zm1.622-.75c.1.054,1,.242,1.115-.135l.019-.669c0-.461-.119-.4-.561-.4-.358,0-.607-.1-.646.288a1.977,1.977,0,0,0,.073.919ZM11.4,34.577c.131.1.2.1.4.1.83,0,.734,0,.734-.669,0-.373.088-.588-.327-.607-.215-.012-.677-.054-.807.092A1.65,1.65,0,0,0,11.4,34.577ZM10.2,22.451c.9,0,.788.108.788-.83,0-.511-.058-.438-.788-.438-.507,0-.419.1-.419.611C9.78,22.285,9.673,22.451,10.2,22.451Zm-.415-5.417c0,.911-.15.834.819.83.392,0,.388-.042.388-.423,0-.9.085-.854-.792-.846C9.8,16.6,9.784,16.626,9.784,17.033ZM5.2,5.584a1.527,1.527,0,0,0,1.046-.015A1.754,1.754,0,0,0,6.328,4.7C6.3,4.281,6.1,4.38,5.67,4.38c-.358,0-.531-.065-.554.327A1.85,1.85,0,0,0,5.2,5.584ZM8.6,8.7c.942,0,.834.108.834-.838,0-.488,0-.427-.834-.427-.473,0-.373.215-.373.654C8.223,8.556,8.131,8.7,8.6,8.7Zm4.291,12.864c0,.65-.092.861.346.888.946.054.888-.019.865-.9-.015-.465-.2-.377-.857-.377-.315,0-.354.062-.354.384Zm-9.231-11.4a1.419,1.419,0,0,0,1.03-.027c.146-.146.1-.631.088-.857-.023-.423-.219-.327-.65-.327-.354,0-.538-.046-.557.331A1.707,1.707,0,0,0,3.656,10.171ZM11.4,29.994c.127.1.138.1.4.1.8,0,.738.019.734-.611,0-.392.1-.615-.261-.661a1.441,1.441,0,0,0-.865.092,1.569,1.569,0,0,0-.012,1.084Zm7.739-2.649a3.462,3.462,0,0,0,.008,1.161,3,3,0,0,0,1.111.015,3.108,3.108,0,0,0,0-1.192,2.757,2.757,0,0,0-1.123.015Zm-7.8-7.27c0,.961-.1.85.761.85.334,0,.431.031.446-.331.046-1.053,0-.95-.738-.942-.388,0-.469.023-.469.423ZM14.49,34.969a3.5,3.5,0,0,0-.015,1.184,2.606,2.606,0,0,0,1.13-.008,3.407,3.407,0,0,0-.008-1.169A2.977,2.977,0,0,0,14.49,34.969Zm-.434-3.045c-.158-.05-1-.138-1.126.05a2.609,2.609,0,0,0,.008,1.13,2.9,2.9,0,0,0,1.107-.015,3.482,3.482,0,0,0,.012-1.165ZM7.819,25.838a1.874,1.874,0,0,0-.83-.077c-.411.015-.315.2-.315.619,0,.4-.1.623.311.657A1.671,1.671,0,0,0,7.8,26.96,1.887,1.887,0,0,0,7.819,25.838ZM5.2,10.167a1.473,1.473,0,0,0,1.034-.015,1.608,1.608,0,0,0,.088-.865C6.3,8.86,6.112,8.96,5.67,8.96c-.361,0-.534-.065-.554.334A1.728,1.728,0,0,0,5.2,10.167Zm12.38,17.174a3.612,3.612,0,0,0,.008,1.169,2.939,2.939,0,0,0,1.115.008,3.145,3.145,0,0,0,0-1.184A2.694,2.694,0,0,0,17.585,27.341ZM9.842,30c.15.111.154.088.415.088.784,0,.73.019.73-.611,0-.384.092-.615-.261-.661a1.57,1.57,0,0,0-.873.085A1.708,1.708,0,0,0,9.842,30Zm1.553-4.587a1.591,1.591,0,0,0,.869.088c.361-.038.277-.281.273-.611,0-.388.1-.611-.265-.654-.215-.027-.719-.058-.857.088a1.579,1.579,0,0,0-.019,1.088ZM2.06,13.193a1.4,1.4,0,0,0,1.092,0,1.71,1.71,0,0,0,.073-.807c-.015-.446-.173-.369-.592-.369-.361,0-.6-.088-.623.315a2.543,2.543,0,0,0,.05.861Zm8.912,27.382a.448.448,0,0,0,.019-.146c.054-.919.031-.992-.911-.923-.3.023-.3.1-.3.4,0,.646-.131.869.415.869.3,0,.519.042.684-.062l.088-.142Zm3.545-18.232c.108.123-.05.058.211.1.092.015.757.038.861-.081a2.008,2.008,0,0,0,.058-.865c-.027-.381-.208-.323-.573-.323s-.588-.077-.634.269c-.031.238-.054.754.077.9Zm-.038,9.573a3.311,3.311,0,0,0,.008,1.184,3,3,0,0,0,1.111-.008,3.409,3.409,0,0,0,.008-1.169A2.588,2.588,0,0,0,14.478,31.916ZM5.5,20.924c.992,0,.823.1.823-.907,0-.388-.119-.365-.477-.365-.773,0-.75-.077-.73.884.008.346.042.388.384.388Zm14.744,4.937c-.1-.092-.031-.062-.192-.092a1.945,1.945,0,0,0-.215-.008c-.819,0-.742-.015-.742.619,0,.388-.092.611.269.654.238.027.7.062.854-.1a1.545,1.545,0,0,0,.027-1.077Zm-4.218,6.055a3.355,3.355,0,0,0,.015,1.176,2.8,2.8,0,0,0,1.1,0,3.288,3.288,0,0,0,.012-1.18A2.8,2.8,0,0,0,16.028,31.916Zm.015-1.526a3.355,3.355,0,0,0-.015,1.176,2.048,2.048,0,0,0,1.107-.027,2.051,2.051,0,0,0,.012-1.15,3.129,3.129,0,0,0-1.1,0Zm-.454-6.075a1.794,1.794,0,0,0-.919-.069c-.323.062-.231.369-.231.7,0,.534-.085.584.811.557a.572.572,0,0,0,.2-.023c.377-.127.188-1.069.138-1.169Zm-3.153,3.033c-.181-.1-.923-.142-1.05.046a2.478,2.478,0,0,0-.008,1.126,2.935,2.935,0,0,0,1.115-.019c.058-.219.127-.961-.058-1.153ZM8.288,25.426a1.759,1.759,0,0,0,.877.077c.35-.038.269-.292.269-.611,0-.373.088-.6-.258-.654a1.643,1.643,0,0,0-.869.073,1.679,1.679,0,0,0-.019,1.115Zm4.16,11.084c-.181-.085-.934-.146-1.069.054a2.408,2.408,0,0,0,.008,1.123,2.68,2.68,0,0,0,1.05,0,1.579,1.579,0,0,0,.012-1.173ZM9.842,25.422a1.653,1.653,0,0,0,.873.081c.354-.035.273-.288.273-.611,0-.381.092-.611-.265-.654a1.574,1.574,0,0,0-.861.081,1.644,1.644,0,0,0-.019,1.1Zm6.194,1.915a3.359,3.359,0,0,0,0,1.176,2.92,2.92,0,0,0,1.111,0,3.048,3.048,0,0,0,0-1.18A2.614,2.614,0,0,0,16.035,27.337ZM9.857,7.118c.012.008,1.088.365,1.134-.285.073-1.084-.054-.923-.846-.923-.338,0-.365.135-.369.458a1.522,1.522,0,0,0,.081.75Zm-3.1,3.041a1.474,1.474,0,0,0,1.034,0c.142-.135.1-.661.088-.873-.023-.415-.177-.327-.6-.327-.377,0-.573-.088-.6.331a1.6,1.6,0,0,0,.085.869Zm7.724,17.174a3.068,3.068,0,0,0,0,1.184,3.194,3.194,0,0,0,1.115,0,3.66,3.66,0,0,0,0-1.176,2.7,2.7,0,0,0-1.123,0ZM2.064,17.779a1.43,1.43,0,0,0,1.084,0,1.735,1.735,0,0,0,.077-.861c-.035-.384-.2-.319-.592-.319-.319,0-.577-.077-.619.269A2.4,2.4,0,0,0,2.064,17.779Zm.035-7.6a1.448,1.448,0,0,0,1.034-.035c.142-.154.108-.6.092-.85C3.2,8.867,3,8.96,2.575,8.96c-.369,0-.546-.073-.565.331A1.769,1.769,0,0,0,2.1,10.174ZM14,36.507c-.188-.081-.938-.142-1.069.058a2.342,2.342,0,0,0,.008,1.119,3.018,3.018,0,0,0,1.1-.012A1.839,1.839,0,0,0,14,36.507ZM9.838,42.22a1.66,1.66,0,0,0,.877.085c.354-.035.273-.285.273-.615,0-.377.088-.607-.265-.654a1.516,1.516,0,0,0-.857.085,1.657,1.657,0,0,0-.027,1.1Zm.019-18.3a1.593,1.593,0,0,0,1.019,0c.031-.027.1.035.115-.338.023-.927-.008-.873-.557-.873-.361,0-.615-.1-.654.288a2.053,2.053,0,0,0,.077.927Zm3.072,3.41a3.014,3.014,0,0,0,0,1.188,2.863,2.863,0,0,0,1.115-.012,3.365,3.365,0,0,0,0-1.161,2.63,2.63,0,0,0-1.123-.015ZM10.9,36.518c-.169-.1-.938-.154-1.069.042a2.548,2.548,0,0,0,.008,1.13,2.453,2.453,0,0,0,1.057-.012A1.584,1.584,0,0,0,10.9,36.518Zm5.156-10.707a2.21,2.21,0,0,0,0,1.142,1.591,1.591,0,0,0,1.084,0,1.745,1.745,0,0,0,0-1.077C16.97,25.657,16.262,25.749,16.051,25.811ZM8.285,42.228a1.747,1.747,0,0,0,.884.077c.346-.038.265-.3.265-.615,0-.369.085-.6-.258-.65a1.605,1.605,0,0,0-.869.073,1.678,1.678,0,0,0-.023,1.115ZM7.8,24.311a1.744,1.744,0,0,0-.873-.073c-.358.05-.254.338-.254.711,0,.45-.077.554.369.557a1.794,1.794,0,0,0,.777-.073A1.726,1.726,0,0,0,7.8,24.311Zm4.641,7.62c-.177-.092-.927-.146-1.057.046a2.425,2.425,0,0,0,0,1.126,1.884,1.884,0,0,0,1.034-.023,1.311,1.311,0,0,0,.023-1.15ZM8.285,20.847a1.815,1.815,0,0,0,1,.05c.219-.188.146-.427.146-.769,0-.469-.015-.477-.492-.477-.35,0-.654-.088-.711.246A2.152,2.152,0,0,0,8.285,20.847ZM5.12,12.393c0,.757-.1.877.323.9.977.046.88-.042.884-.73,0-.411.146-.627-.892-.546C5.113,12.039,5.12,12.078,5.12,12.393Zm7.313,31.753c-.165-.088-.927-.142-1.053.042a2.962,2.962,0,0,0,0,1.134c.373.081,1.1.211,1.157-.254v-.684c-.019-.188-.05-.181-.1-.238ZM11.376,22.735a2.363,2.363,0,0,0,.031,1.18s1.1.381,1.134-.285C12.606,22.55,12.533,22.673,11.376,22.735Zm-.488,9.2c-.169-.1-.927-.146-1.057.042a2.549,2.549,0,0,0,0,1.13c.338.065,1.088.208,1.157-.25a1.714,1.714,0,0,0-.1-.923Zm.069,4.095c.038-.092.019-.035.031-.135.108-.957-.054-1.15-1.157-.934a2.878,2.878,0,0,0-.054.769c0,.342,0,.465.369.465a1.694,1.694,0,0,0,.742-.062l.069-.1Zm2-2.53a1.715,1.715,0,0,0-.073.854c.035.384.219.319.584.319.311,0,.581.065.623-.265.123-.93-.015-1.115-.9-1.007C12.967,33.427,12.983,33.477,12.956,33.5ZM8.6,17.864c.777,0,.834.115.834-.427,0-.838.1-.957-.942-.842-.354.038-.261.3-.265.669,0,.434-.085.6.373.6" transform="translate(0 11.652)" fill="#9bcb4a"/>
    </g>
  </g>
</svg>
